<?xml version="1.0" encoding="utf-8" ?>
<svg baseProfile="full" height="100%" version="1.1" viewBox="471,0,1659,733" width="100%" xmlns="http://www.w3.org/2000/svg" xmlns:ev="http://www.w3.org/2001/xml-events" xmlns:xlink="http://www.w3.org/1999/xlink"><defs /><line stroke="black" x1="1022.6956521739131" x2="594.0" y1="127.58333333333333" y2="287.0833333333333" /><line stroke="black" x1="1022.6956521739131" x2="1279.9130434782608" y1="127.58333333333333" y2="287.0833333333333" /><line stroke="black" x1="1022.6956521739131" x2="1365.6521739130433" y1="127.58333333333333" y2="287.0833333333333" /><line stroke="black" x1="1022.6956521739131" x2="1451.3913043478258" y1="127.58333333333333" y2="287.0833333333333" /><line stroke="black" x1="1022.6956521739131" x2="1194.1739130434783" y1="127.58333333333333" y2="287.0833333333333" /><line stroke="black" x1="1022.6956521739131" x2="1108.4347826086957" y1="127.58333333333333" y2="287.0833333333333" /><line stroke="black" x1="1022.6956521739131" x2="1022.6956521739131" y1="127.58333333333333" y2="287.0833333333333" /><line stroke="black" x1="1022.6956521739131" x2="936.9565217391305" y1="127.58333333333333" y2="287.0833333333333" /><line stroke="black" x1="1022.6956521739131" x2="851.2173913043479" y1="127.58333333333333" y2="287.0833333333333" /><line stroke="black" x1="1022.6956521739131" x2="765.4782608695652" y1="127.58333333333333" y2="287.0833333333333" /><line stroke="black" x1="1022.6956521739131" x2="679.7391304347826" y1="127.58333333333333" y2="287.0833333333333" /><line stroke="black" x1="594.0" x2="1022.6956521739131" y1="446.5833333333333" y2="606.0833333333334" /><line stroke="black" x1="594.0" x2="594.0" y1="287.0833333333333" y2="446.5833333333333" /><line stroke="black" x1="594.0" x2="679.7391304347826" y1="287.0833333333333" y2="446.5833333333333" /><line stroke="black" x1="594.0" x2="936.9565217391305" y1="287.0833333333333" y2="446.5833333333333" /><line stroke="black" x1="594.0" x2="851.2173913043479" y1="287.0833333333333" y2="446.5833333333333" /><line stroke="black" x1="594.0" x2="765.4782608695652" y1="287.0833333333333" y2="446.5833333333333" /><line stroke="black" x1="679.7391304347826" x2="1022.6956521739131" y1="446.5833333333333" y2="606.0833333333334" /><line stroke="black" x1="936.9565217391305" x2="1022.6956521739131" y1="446.5833333333333" y2="606.0833333333334" /><line stroke="black" x1="851.2173913043479" x2="1022.6956521739131" y1="446.5833333333333" y2="606.0833333333334" /><line stroke="black" x1="765.4782608695652" x2="1022.6956521739131" y1="446.5833333333333" y2="606.0833333333334" /><line stroke="black" x1="1279.9130434782608" x2="1022.6956521739131" y1="287.0833333333333" y2="446.5833333333333" /><line stroke="black" x1="1279.9130434782608" x2="1108.4347826086957" y1="287.0833333333333" y2="446.5833333333333" /><line stroke="black" x1="1279.9130434782608" x2="1194.1739130434783" y1="287.0833333333333" y2="446.5833333333333" /><line stroke="black" x1="1279.9130434782608" x2="936.9565217391305" y1="287.0833333333333" y2="446.5833333333333" /><line stroke="black" x1="1022.6956521739131" x2="1022.6956521739131" y1="446.5833333333333" y2="606.0833333333334" /><line stroke="black" x1="1108.4347826086957" x2="1022.6956521739131" y1="446.5833333333333" y2="606.0833333333334" /><line stroke="black" x1="1194.1739130434783" x2="1022.6956521739131" y1="446.5833333333333" y2="606.0833333333334" /><line stroke="black" x1="1451.3913043478258" x2="1022.6956521739131" y1="446.5833333333333" y2="606.0833333333334" /><line stroke="black" x1="1365.6521739130433" x2="1451.3913043478258" y1="287.0833333333333" y2="446.5833333333333" /><line stroke="black" x1="1365.6521739130433" x2="1365.6521739130433" y1="287.0833333333333" y2="446.5833333333333" /><line stroke="black" x1="1365.6521739130433" x2="1279.9130434782608" y1="287.0833333333333" y2="446.5833333333333" /><line stroke="black" x1="1365.6521739130433" x2="1022.6956521739131" y1="446.5833333333333" y2="606.0833333333334" /><line stroke="black" x1="1279.9130434782608" x2="1022.6956521739131" y1="446.5833333333333" y2="606.0833333333334" /><line stroke="black" x1="1451.3913043478258" x2="1537.1304347826083" y1="287.0833333333333" y2="446.5833333333333" /><line stroke="black" x1="1451.3913043478258" x2="1451.3913043478258" y1="287.0833333333333" y2="446.5833333333333" /><line stroke="black" x1="1537.1304347826083" x2="1022.6956521739131" y1="446.5833333333333" y2="606.0833333333334" /><line stroke="black" x1="1194.1739130434783" x2="1022.6956521739131" y1="287.0833333333333" y2="606.0833333333334" /><line stroke="black" x1="1108.4347826086957" x2="1022.6956521739131" y1="287.0833333333333" y2="606.0833333333334" /><line stroke="black" x1="1022.6956521739131" x2="1022.6956521739131" y1="287.0833333333333" y2="606.0833333333334" /><line stroke="black" x1="936.9565217391305" x2="1022.6956521739131" y1="287.0833333333333" y2="606.0833333333334" /><line stroke="black" x1="851.2173913043479" x2="1022.6956521739131" y1="287.0833333333333" y2="606.0833333333334" /><line stroke="black" x1="765.4782608695652" x2="1022.6956521739131" y1="287.0833333333333" y2="606.0833333333334" /><line stroke="black" x1="679.7391304347826" x2="1022.6956521739131" y1="287.0833333333333" y2="606.0833333333334" /><a target="_top" xlink:href="readme.html#tr0"><circle cx="1022.6956521739131" cy="606.0833333333334" fill="green" r="28" stroke="black" /><circle cx="1022.6956521739131" cy="606.0833333333334" fill="yellow" r="21" stroke="black" /><circle cx="1022.6956521739131" cy="606.0833333333334" fill="red" r="14" stroke="black" /><circle cx="1022.6956521739131" cy="606.0833333333334" fill="lightblue" r="7" stroke="black" /></a><a target="_top" xlink:href="readme.html#tr1" /><a target="_top" xlink:href="readme.html#tr2"><circle cx="594.0" cy="446.5833333333333" fill="red" r="28" stroke="black" /><circle cx="594.0" cy="446.5833333333333" fill="lightblue" r="14" stroke="black" /></a><a target="_top" xlink:href="readme.html#tr3"><circle cx="594.0" cy="287.0833333333333" fill="lightblue" r="28" stroke="black" /></a><a target="_top" xlink:href="readme.html#tr4"><circle cx="679.7391304347826" cy="446.5833333333333" fill="red" r="28" stroke="black" /><circle cx="679.7391304347826" cy="446.5833333333333" fill="lightblue" r="14" stroke="black" /></a><a target="_top" xlink:href="readme.html#tr5"><circle cx="936.9565217391305" cy="446.5833333333333" fill="red" r="28" stroke="black" /><circle cx="936.9565217391305" cy="446.5833333333333" fill="lightblue" r="14" stroke="black" /></a><a target="_top" xlink:href="readme.html#tr6"><circle cx="851.2173913043479" cy="446.5833333333333" fill="red" r="28" stroke="black" /><circle cx="851.2173913043479" cy="446.5833333333333" fill="lightblue" r="14" stroke="black" /></a><a target="_top" xlink:href="readme.html#tr7"><circle cx="765.4782608695652" cy="446.5833333333333" fill="red" r="28" stroke="black" /><circle cx="765.4782608695652" cy="446.5833333333333" fill="lightblue" r="14" stroke="black" /></a><a target="_top" xlink:href="readme.html#tr8"><circle cx="1279.9130434782608" cy="287.0833333333333" fill="lightblue" r="28" stroke="black" /></a><a target="_top" xlink:href="readme.html#tr9"><circle cx="1022.6956521739131" cy="446.5833333333333" fill="red" r="28" stroke="black" /><circle cx="1022.6956521739131" cy="446.5833333333333" fill="lightblue" r="14" stroke="black" /></a><a target="_top" xlink:href="readme.html#tr10"><circle cx="1108.4347826086957" cy="446.5833333333333" fill="red" r="28" stroke="black" /><circle cx="1108.4347826086957" cy="446.5833333333333" fill="lightblue" r="14" stroke="black" /></a><a target="_top" xlink:href="readme.html#tr11"><circle cx="1194.1739130434783" cy="446.5833333333333" fill="red" r="28" stroke="black" /><circle cx="1194.1739130434783" cy="446.5833333333333" fill="lightblue" r="14" stroke="black" /></a><a target="_top" xlink:href="readme.html#tr12"><circle cx="1451.3913043478258" cy="446.5833333333333" fill="red" r="28" stroke="black" /><circle cx="1451.3913043478258" cy="446.5833333333333" fill="lightblue" r="14" stroke="black" /></a><a target="_top" xlink:href="readme.html#tr13"><circle cx="1365.6521739130433" cy="287.0833333333333" fill="lightblue" r="28" stroke="black" /></a><a target="_top" xlink:href="readme.html#tr14"><circle cx="1365.6521739130433" cy="446.5833333333333" fill="red" r="28" stroke="black" /><circle cx="1365.6521739130433" cy="446.5833333333333" fill="lightblue" r="14" stroke="black" /></a><a target="_top" xlink:href="readme.html#tr15"><circle cx="1279.9130434782608" cy="446.5833333333333" fill="red" r="28" stroke="black" /><circle cx="1279.9130434782608" cy="446.5833333333333" fill="lightblue" r="14" stroke="black" /></a><a target="_top" xlink:href="readme.html#tr16"><circle cx="1451.3913043478258" cy="287.0833333333333" fill="red" r="28" stroke="black" /></a><a target="_top" xlink:href="readme.html#tr17"><circle cx="1537.1304347826083" cy="446.5833333333333" fill="red" r="28" stroke="black" /><circle cx="1537.1304347826083" cy="446.5833333333333" fill="lightblue" r="14" stroke="black" /></a><a target="_top" xlink:href="readme.html#tr18"><circle cx="1194.1739130434783" cy="287.0833333333333" fill="yellow" r="28" stroke="black" /><circle cx="1194.1739130434783" cy="287.0833333333333" fill="lightblue" r="14" stroke="black" /></a><a target="_top" xlink:href="readme.html#tr19"><circle cx="1108.4347826086957" cy="287.0833333333333" fill="red" r="28" stroke="black" /><circle cx="1108.4347826086957" cy="287.0833333333333" fill="lightblue" r="14" stroke="black" /></a><a target="_top" xlink:href="readme.html#tr20"><circle cx="1022.6956521739131" cy="287.0833333333333" fill="green" r="28" stroke="black" /><circle cx="1022.6956521739131" cy="287.0833333333333" fill="red" r="14" stroke="black" /></a><a target="_top" xlink:href="readme.html#tr21"><circle cx="936.9565217391305" cy="287.0833333333333" fill="red" r="28" stroke="black" /><circle cx="936.9565217391305" cy="287.0833333333333" fill="lightblue" r="14" stroke="black" /></a><a target="_top" xlink:href="readme.html#tr22"><circle cx="851.2173913043479" cy="287.0833333333333" fill="red" r="28" stroke="black" /><circle cx="851.2173913043479" cy="287.0833333333333" fill="lightblue" r="14" stroke="black" /></a><a target="_top" xlink:href="readme.html#tr23"><circle cx="765.4782608695652" cy="287.0833333333333" fill="red" r="28" stroke="black" /><circle cx="765.4782608695652" cy="287.0833333333333" fill="lightblue" r="14" stroke="black" /></a><a target="_top" xlink:href="readme.html#tr24"><circle cx="679.7391304347826" cy="287.0833333333333" fill="red" r="28" stroke="black" /><circle cx="679.7391304347826" cy="287.0833333333333" fill="lightblue" r="14" stroke="black" /></a></svg>