<?xml version="1.0" encoding="utf-8" ?>
<svg baseProfile="full" height="100%" version="1.1" viewBox="460,0,1648,733" width="100%" xmlns="http://www.w3.org/2000/svg" xmlns:ev="http://www.w3.org/2001/xml-events" xmlns:xlink="http://www.w3.org/1999/xlink"><defs /><line stroke="black" x1="988.4" x2="988.4000000000001" y1="127.58333333333333" y2="287.0833333333333" /><line stroke="black" x1="988.4" x2="725.4666666666667" y1="127.58333333333333" y2="287.0833333333333" /><line stroke="black" x1="988.4" x2="594.0" y1="127.58333333333333" y2="287.0833333333333" /><line stroke="black" x1="988.4" x2="856.9333333333334" y1="127.58333333333333" y2="287.0833333333333" /><line stroke="black" x1="988.4" x2="1382.8000000000002" y1="127.58333333333333" y2="287.0833333333333" /><line stroke="black" x1="988.4" x2="1514.2666666666669" y1="127.58333333333333" y2="287.0833333333333" /><line stroke="black" x1="988.4" x2="1251.3333333333335" y1="127.58333333333333" y2="287.0833333333333" /><line stroke="black" x1="988.4" x2="1119.8666666666668" y1="127.58333333333333" y2="287.0833333333333" /><line stroke="black" x1="856.9333333333334" x2="988.4" y1="446.5833333333333" y2="606.0833333333334" /><line stroke="black" x1="594.0" x2="856.9333333333334" y1="287.0833333333333" y2="446.5833333333333" /><line stroke="black" x1="594.0" x2="725.4666666666667" y1="287.0833333333333" y2="446.5833333333333" /><line stroke="black" x1="594.0" x2="594.0" y1="287.0833333333333" y2="446.5833333333333" /><line stroke="black" x1="725.4666666666667" x2="988.4" y1="446.5833333333333" y2="606.0833333333334" /><line stroke="black" x1="594.0" x2="988.4" y1="446.5833333333333" y2="606.0833333333334" /><line stroke="black" x1="856.9333333333334" x2="1119.8666666666668" y1="287.0833333333333" y2="446.5833333333333" /><line stroke="black" x1="856.9333333333334" x2="856.9333333333334" y1="287.0833333333333" y2="446.5833333333333" /><line stroke="black" x1="856.9333333333334" x2="988.4000000000001" y1="287.0833333333333" y2="446.5833333333333" /><line stroke="black" x1="988.4000000000001" x2="988.4" y1="446.5833333333333" y2="606.0833333333334" /><line stroke="black" x1="1119.8666666666668" x2="988.4" y1="446.5833333333333" y2="606.0833333333334" /><line stroke="black" x1="1382.8000000000002" x2="856.9333333333334" y1="287.0833333333333" y2="446.5833333333333" /><line stroke="black" x1="1382.8000000000002" x2="1251.3333333333335" y1="287.0833333333333" y2="446.5833333333333" /><line stroke="black" x1="1251.3333333333335" x2="988.4" y1="446.5833333333333" y2="606.0833333333334" /><line stroke="black" x1="1514.2666666666669" x2="1251.3333333333335" y1="287.0833333333333" y2="446.5833333333333" /><line stroke="black" x1="1514.2666666666669" x2="1382.8000000000002" y1="287.0833333333333" y2="446.5833333333333" /><line stroke="black" x1="1514.2666666666669" x2="1514.2666666666669" y1="287.0833333333333" y2="446.5833333333333" /><line stroke="black" x1="1382.8000000000002" x2="988.4" y1="446.5833333333333" y2="606.0833333333334" /><line stroke="black" x1="1514.2666666666669" x2="988.4" y1="446.5833333333333" y2="606.0833333333334" /><line stroke="black" x1="1251.3333333333335" x2="988.4" y1="287.0833333333333" y2="606.0833333333334" /><line stroke="black" x1="1119.8666666666668" x2="988.4" y1="287.0833333333333" y2="606.0833333333334" /><line stroke="black" x1="988.4000000000001" x2="988.4" y1="287.0833333333333" y2="606.0833333333334" /><line stroke="black" x1="725.4666666666667" x2="988.4" y1="287.0833333333333" y2="606.0833333333334" /><a target="_top" xlink:href="readme.html#tr0"><circle cx="988.4" cy="606.0833333333334" fill="green" r="35" stroke="black" /><circle cx="988.4" cy="606.0833333333334" fill="yellow" r="26" stroke="black" /><circle cx="988.4" cy="606.0833333333334" fill="red" r="17" stroke="black" /><circle cx="988.4" cy="606.0833333333334" fill="lightblue" r="8" stroke="black" /></a><a target="_top" xlink:href="readme.html#tr1" /><a target="_top" xlink:href="readme.html#tr2"><circle cx="856.9333333333334" cy="446.5833333333333" fill="red" r="35" stroke="black" /><circle cx="856.9333333333334" cy="446.5833333333333" fill="lightblue" r="17" stroke="black" /></a><a target="_top" xlink:href="readme.html#tr3"><circle cx="594.0" cy="287.0833333333333" fill="lightblue" r="35" stroke="black" /></a><a target="_top" xlink:href="readme.html#tr4"><circle cx="725.4666666666667" cy="446.5833333333333" fill="red" r="35" stroke="black" /><circle cx="725.4666666666667" cy="446.5833333333333" fill="lightblue" r="17" stroke="black" /></a><a target="_top" xlink:href="readme.html#tr5"><circle cx="594.0" cy="446.5833333333333" fill="red" r="35" stroke="black" /><circle cx="594.0" cy="446.5833333333333" fill="lightblue" r="17" stroke="black" /></a><a target="_top" xlink:href="readme.html#tr6"><circle cx="856.9333333333334" cy="287.0833333333333" fill="lightblue" r="35" stroke="black" /></a><a target="_top" xlink:href="readme.html#tr7"><circle cx="988.4000000000001" cy="446.5833333333333" fill="red" r="35" stroke="black" /><circle cx="988.4000000000001" cy="446.5833333333333" fill="lightblue" r="17" stroke="black" /></a><a target="_top" xlink:href="readme.html#tr8"><circle cx="1119.8666666666668" cy="446.5833333333333" fill="red" r="35" stroke="black" /><circle cx="1119.8666666666668" cy="446.5833333333333" fill="lightblue" r="17" stroke="black" /></a><a target="_top" xlink:href="readme.html#tr9"><circle cx="1382.8000000000002" cy="287.0833333333333" fill="red" r="35" stroke="black" /></a><a target="_top" xlink:href="readme.html#tr10"><circle cx="1251.3333333333335" cy="446.5833333333333" fill="red" r="35" stroke="black" /><circle cx="1251.3333333333335" cy="446.5833333333333" fill="lightblue" r="17" stroke="black" /></a><a target="_top" xlink:href="readme.html#tr11"><circle cx="1514.2666666666669" cy="287.0833333333333" fill="lightblue" r="35" stroke="black" /></a><a target="_top" xlink:href="readme.html#tr12"><circle cx="1382.8000000000002" cy="446.5833333333333" fill="red" r="35" stroke="black" /><circle cx="1382.8000000000002" cy="446.5833333333333" fill="lightblue" r="17" stroke="black" /></a><a target="_top" xlink:href="readme.html#tr13"><circle cx="1514.2666666666669" cy="446.5833333333333" fill="red" r="35" stroke="black" /><circle cx="1514.2666666666669" cy="446.5833333333333" fill="lightblue" r="17" stroke="black" /></a><a target="_top" xlink:href="readme.html#tr14"><circle cx="1251.3333333333335" cy="287.0833333333333" fill="yellow" r="35" stroke="black" /><circle cx="1251.3333333333335" cy="287.0833333333333" fill="lightblue" r="17" stroke="black" /></a><a target="_top" xlink:href="readme.html#tr15"><circle cx="1119.8666666666668" cy="287.0833333333333" fill="red" r="35" stroke="black" /><circle cx="1119.8666666666668" cy="287.0833333333333" fill="lightblue" r="17" stroke="black" /></a><a target="_top" xlink:href="readme.html#tr16"><circle cx="988.4000000000001" cy="287.0833333333333" fill="red" r="35" stroke="black" /><circle cx="988.4000000000001" cy="287.0833333333333" fill="lightblue" r="17" stroke="black" /></a><a target="_top" xlink:href="readme.html#tr17"><circle cx="725.4666666666667" cy="287.0833333333333" fill="green" r="35" stroke="black" /><circle cx="725.4666666666667" cy="287.0833333333333" fill="red" r="17" stroke="black" /></a></svg>